<mxfile host="Electron" agent="Mozilla/5.0 (Macintosh; Intel Mac OS X 10_15_7) AppleWebKit/537.36 (KHTML, like Gecko) draw.io/24.7.17 Chrome/128.0.6613.36 Electron/32.0.1 Safari/537.36" version="24.7.17">
  <diagram name="Page-1" id="_gRGWOFDqU3hSQWJzQTY">
    <mxGraphModel dx="1012" dy="1805" grid="1" gridSize="10" guides="1" tooltips="1" connect="1" arrows="1" fold="1" page="1" pageScale="1" pageWidth="850" pageHeight="1100" background="none" math="1" shadow="0">
      <root>
        <mxCell id="0" />
        <mxCell id="1" parent="0" />
        <mxCell id="vsRgP92jTyw3C7przkWq-65" value="$$ \nabla_\mathbf{x} \log p(\mathbf{x})$$" style="text;html=1;align=center;verticalAlign=middle;whiteSpace=wrap;rounded=0;fontColor=#009900;" parent="1" vertex="1">
          <mxGeometry x="272.5" y="-670" width="128" height="30" as="geometry" />
        </mxCell>
        <mxCell id="vsRgP92jTyw3C7przkWq-94" value="Drift" style="text;html=1;align=center;verticalAlign=middle;whiteSpace=wrap;rounded=0;fontFamily=Segoe UI;" parent="1" vertex="1">
          <mxGeometry x="225.5" y="-670" width="70" height="30" as="geometry" />
        </mxCell>
        <mxCell id="vsRgP92jTyw3C7przkWq-138" value="" style="endArrow=classic;html=1;rounded=0;" parent="1" edge="1">
          <mxGeometry width="50" height="50" relative="1" as="geometry">
            <mxPoint x="240.5" y="-620" as="sourcePoint" />
            <mxPoint x="400.5" y="-620" as="targetPoint" />
          </mxGeometry>
        </mxCell>
        <mxCell id="vsRgP92jTyw3C7przkWq-139" value="" style="ellipse;whiteSpace=wrap;html=1;fillColor=#000000;" parent="1" vertex="1">
          <mxGeometry x="257.5" y="-623" width="5" height="5" as="geometry" />
        </mxCell>
        <mxCell id="vsRgP92jTyw3C7przkWq-140" value="$$0$$" style="text;html=1;align=center;verticalAlign=middle;whiteSpace=wrap;rounded=0;" parent="1" vertex="1">
          <mxGeometry x="239.5" y="-617" width="40" height="18" as="geometry" />
        </mxCell>
        <mxCell id="vsRgP92jTyw3C7przkWq-143" value="$$1$$" style="ellipse;whiteSpace=wrap;html=1;fillColor=#0000FF;strokeColor=#0000FF;fontColor=#FFFFFF;fontSize=10;" parent="1" vertex="1">
          <mxGeometry x="295.5" y="-625" width="10" height="10" as="geometry" />
        </mxCell>
        <mxCell id="vsRgP92jTyw3C7przkWq-86" value="$$\epsilon$$" style="ellipse;whiteSpace=wrap;html=1;fillColor=#FF0080;strokeColor=#FF0080;fontColor=#FFFFFF;spacingTop=-2;" parent="1" vertex="1">
          <mxGeometry x="375.5" y="-625" width="10" height="10" as="geometry" />
        </mxCell>
        <mxCell id="vsRgP92jTyw3C7przkWq-151" value="" style="endArrow=classic;startArrow=none;html=1;rounded=0;fontColor=default;strokeColor=#009900;fontSize=8;startFill=0;labelBackgroundColor=none;spacingTop=-14;" parent="1" edge="1">
          <mxGeometry width="50" height="50" relative="1" as="geometry">
            <mxPoint x="380.5" y="-600" as="sourcePoint" />
            <mxPoint x="360.5" y="-600" as="targetPoint" />
          </mxGeometry>
        </mxCell>
        <mxCell id="OIEMgDP7otDQHpOeGZCA-13" value="" style="endArrow=classic;startArrow=none;html=1;rounded=0;fontColor=default;strokeColor=#009900;fontSize=8;startFill=0;labelBackgroundColor=none;spacingTop=-14;" parent="1" edge="1">
          <mxGeometry width="50" height="50" relative="1" as="geometry">
            <mxPoint x="360.5" y="-600" as="sourcePoint" />
            <mxPoint x="340.5" y="-600" as="targetPoint" />
          </mxGeometry>
        </mxCell>
        <mxCell id="OIEMgDP7otDQHpOeGZCA-14" value="" style="endArrow=classic;startArrow=none;html=1;rounded=0;fontColor=default;strokeColor=#009900;fontSize=8;startFill=0;labelBackgroundColor=none;spacingTop=-14;" parent="1" edge="1">
          <mxGeometry width="50" height="50" relative="1" as="geometry">
            <mxPoint x="340.5" y="-600" as="sourcePoint" />
            <mxPoint x="320" y="-600" as="targetPoint" />
          </mxGeometry>
        </mxCell>
        <mxCell id="SKEq8fiYGF0kADwugxDa-5" value="&lt;span style=&quot;font-size: 10px;&quot;&gt;$$1$$&lt;/span&gt;" style="ellipse;whiteSpace=wrap;html=1;fillColor=#FF3399;strokeColor=#FF3399;fontColor=#FFFFFF;" parent="1" vertex="1">
          <mxGeometry x="335" y="-625" width="10" height="10" as="geometry" />
        </mxCell>
        <mxCell id="SKEq8fiYGF0kADwugxDa-6" value="" style="endArrow=classic;startArrow=none;html=1;rounded=0;fontColor=default;strokeColor=#009900;fontSize=8;startFill=0;labelBackgroundColor=none;spacingTop=-14;" parent="1" edge="1">
          <mxGeometry width="50" height="50" relative="1" as="geometry">
            <mxPoint x="320" y="-600" as="sourcePoint" />
            <mxPoint x="299.5" y="-600" as="targetPoint" />
          </mxGeometry>
        </mxCell>
        <mxCell id="VMrThyRPiZVV-AlE0CfE-1" value="$$\epsilon$$" style="ellipse;whiteSpace=wrap;html=1;fillColor=#FF0080;strokeColor=#FF0080;fontColor=#FFFFFF;spacingTop=-2;" parent="1" vertex="1">
          <mxGeometry x="265.5" y="-625" width="10" height="10" as="geometry" />
        </mxCell>
        <mxCell id="VMrThyRPiZVV-AlE0CfE-3" value="" style="endArrow=classic;startArrow=none;html=1;rounded=0;fontColor=default;strokeColor=#009900;fontSize=8;startFill=0;labelBackgroundColor=none;spacingTop=-14;" parent="1" edge="1">
          <mxGeometry width="50" height="50" relative="1" as="geometry">
            <mxPoint x="269.5" y="-590" as="sourcePoint" />
            <mxPoint x="280" y="-590" as="targetPoint" />
          </mxGeometry>
        </mxCell>
        <mxCell id="VMrThyRPiZVV-AlE0CfE-4" value="" style="endArrow=classic;startArrow=none;html=1;rounded=0;fontColor=default;strokeColor=#009900;fontSize=8;startFill=0;labelBackgroundColor=none;spacingTop=-14;" parent="1" edge="1">
          <mxGeometry width="50" height="50" relative="1" as="geometry">
            <mxPoint x="280.5" y="-590" as="sourcePoint" />
            <mxPoint x="291" y="-590" as="targetPoint" />
          </mxGeometry>
        </mxCell>
        <mxCell id="VMrThyRPiZVV-AlE0CfE-5" value="" style="endArrow=classic;startArrow=none;html=1;rounded=0;fontColor=default;strokeColor=#009900;fontSize=8;startFill=0;labelBackgroundColor=none;spacingTop=-14;" parent="1" edge="1">
          <mxGeometry width="50" height="50" relative="1" as="geometry">
            <mxPoint x="290.5" y="-590" as="sourcePoint" />
            <mxPoint x="301" y="-590" as="targetPoint" />
          </mxGeometry>
        </mxCell>
        <mxCell id="VMrThyRPiZVV-AlE0CfE-9" value="$$1 \leftarrow T$$" style="text;html=1;align=center;verticalAlign=middle;whiteSpace=wrap;rounded=0;" parent="1" vertex="1">
          <mxGeometry x="320" y="-590" width="40.5" height="20" as="geometry" />
        </mxCell>
      </root>
    </mxGraphModel>
  </diagram>
</mxfile>
